<?xml version="1.0" encoding="UTF-8" standalone="no" ?>
<!DOCTYPE svg PUBLIC "-//W3C//DTD SVG 1.1//EN" "http://www.w3.org/Graphics/SVG/1.1/DTD/svg11.dtd">
<svg xmlns="http://www.w3.org/2000/svg" xmlns:xlink="http://www.w3.org/1999/xlink" version="1.1" width="500" height="500" viewBox="0 0 500 500" xml:space="preserve">
<desc>Created with Fabric.js 3.6.3</desc>
<defs>
</defs>
<g transform="matrix(4.238519101149255 0 0 4.238519101149255 277.1186471568284 255.72420974495384)"  >
<circle style="stroke: none; stroke-width: 0; stroke-dasharray: none; stroke-linecap: butt; stroke-dashoffset: 0; stroke-linejoin: miter; stroke-miterlimit: 4; fill: rgb(0,67,88); fill-rule: evenodd; opacity: 1;"  cx="0" cy="0" r="47.0059" />
</g>
<g transform="matrix(3.3397382810570373 0 0 3.0741116189247792 277.1186471568284 259.4412477338003)"  >
<circle style="stroke: none; stroke-width: 0; stroke-dasharray: none; stroke-linecap: butt; stroke-dashoffset: 0; stroke-linejoin: miter; stroke-miterlimit: 4; fill: rgb(0,0,0); fill-rule: evenodd; opacity: 1;"  cx="0" cy="0" r="47.0059" />
</g>
<g transform="matrix(0.5279277049884403 0 0 -0.0642248039398088 277.3826110093226 320.5043428135587)"  >
<rect style="stroke: none; stroke-width: 1; stroke-dasharray: none; stroke-linecap: butt; stroke-dashoffset: 0; stroke-linejoin: miter; stroke-miterlimit: 4; fill: rgb(255,255,255); fill-rule: evenodd; opacity: 1;"  x="-393.5" y="-393.5" rx="0" ry="0" width="787" height="787" />
</g>
<g transform="matrix(0.5 0 0 0.5 274.8059419629053 321.00759076190354)" style=""  ><path fill="#000000" opacity="1" d=""/><path fill="#000000" opacity="1" d="M-264.02 39.52Q-269.50 39.52-272.57 36.17Q-275.64 32.83-275.64 26.84L-275.64 26.84Q-275.64 20.22-272.06 16.67Q-268.47 13.13-261.81 13.13L-261.81 13.13Q-260.32 13.13-258.46 13.36Q-256.61 13.60-255.27 13.83Q-253.93 14.07-253.54 14.15L-253.54 14.15L-253.22 14.94Q-253.30 15.21-253.50 16.36Q-253.70 17.50-253.95 19.37Q-254.21 21.24-254.33 23.37L-254.33 23.37L-260.39 23.72Q-260.39 23.53-260.35 22.94Q-260.32 22.35-260.32 21.48L-260.32 21.48Q-260.32 19.90-260.93 19.23Q-261.54 18.56-263.03 18.56L-263.03 18.56Q-264.45 18.56-265.22 19.19Q-265.99 19.82-266.32 21.30Q-266.66 22.78-266.66 25.42L-266.66 25.42Q-266.66 29.83-265.73 31.90Q-264.81 33.97-262.84 33.97L-262.84 33.97Q-261.34 33.97-260.63 32.94Q-259.92 31.92-259.72 29.40L-259.72 29.40L-253.70 29.00Q-253.77 29.79-253.97 32.41Q-254.17 35.03-254.17 37.40L-254.17 37.40L-254.68 38.03Q-255.04 38.14-256.32 38.50Q-257.60 38.85-259.68 39.19Q-261.77 39.52-264.02 39.52L-264.02 39.52Z"/><path fill="#000000" opacity="1" d="M-240.14 39.56Q-245.86 39.56-248.87 36.27Q-251.88 32.98-251.88 26.80L-251.88 26.80Q-251.88 20.18-248.57 16.65Q-245.26 13.13-239.00 13.13L-239.00 13.13Q-233.17 13.13-230.21 16.30Q-227.26 19.47-227.26 25.69L-227.26 25.69Q-227.26 32.35-230.61 35.96Q-233.96 39.56-240.14 39.56L-240.14 39.56ZM-239.39 34.60Q-237.70 34.60-236.99 33.12Q-236.28 31.64-236.28 28.18L-236.28 28.18Q-236.28 24.55-236.62 22.46Q-236.95 20.38-237.72 19.45Q-238.49 18.52-239.83 18.52L-239.83 18.52Q-241.48 18.52-242.17 19.96Q-242.86 21.40-242.86 24.87L-242.86 24.87Q-242.86 28.49-242.53 30.60Q-242.19 32.71-241.44 33.65Q-240.69 34.60-239.39 34.60L-239.39 34.60Z"/><path fill="#000000" opacity="1" d="M-206.30 39.72Q-207.95 39.72-209.00 38.89Q-210.04 38.07-210.79 36.14L-210.79 36.14L-213.23 30.11L-215.44 30.11L-215.44 32.79Q-215.44 34.09-215.26 34.62Q-215.08 35.15-214.53 35.35Q-213.98 35.54-212.64 35.62L-212.64 35.62L-212.44 35.94L-212.84 39.25Q-213.63 39.21-215.62 39.15Q-217.61 39.09-219.30 39.09L-219.30 39.09Q-221.11 39.09-223.28 39.23Q-225.45 39.37-226.12 39.44L-226.12 39.44L-225.76 35.82Q-224.30 35.58-223.75 34.85Q-223.20 34.13-223.20 32.47L-223.20 32.47L-223.20 18.80Q-223.20 17.81-223.42 17.44Q-223.63 17.07-224.23 17.07L-224.23 17.07Q-224.70 17.07-225.09 17.11Q-225.49 17.14-225.60 17.14L-225.60 17.14L-226.00 16.67L-225.56 13.56L-219.97 13.60Q-218.79 13.60-216.17 13.50Q-213.55 13.40-212.68 13.36L-212.68 13.36Q-201.81 13.36-201.81 20.77L-201.81 20.77Q-201.81 25.42-206.53 28.22L-206.53 28.22L-204.09 32.31Q-203.07 34.01-202.10 34.89Q-201.14 35.78-200.27 35.78L-200.27 35.78L-199.84 36.41L-200.19 39.29L-206.30 39.72ZM-212.33 25.54Q-210.99 24.99-210.45 24.10Q-209.92 23.21-209.92 21.56L-209.92 21.56Q-209.92 19.86-211.01 19.08Q-212.09 18.29-214.38 18.29L-214.38 18.29Q-214.77 18.29-214.89 18.44Q-215.01 18.60-215.04 19.15L-215.04 19.15Q-215.24 21.83-215.32 25.14L-215.32 25.14L-212.33 25.54Z"/><path fill="#000000" opacity="1" d="M-179.58 39.72Q-181.24 39.72-182.28 38.89Q-183.33 38.07-184.08 36.14L-184.08 36.14L-186.52 30.11L-188.73 30.11L-188.73 32.79Q-188.73 34.09-188.55 34.62Q-188.37 35.15-187.82 35.35Q-187.27 35.54-185.93 35.62L-185.93 35.62L-185.73 35.94L-186.13 39.25Q-186.91 39.21-188.90 39.15Q-190.89 39.09-192.59 39.09L-192.59 39.09Q-194.40 39.09-196.57 39.23Q-198.73 39.37-199.40 39.44L-199.40 39.44L-199.05 35.82Q-197.59 35.58-197.04 34.85Q-196.49 34.13-196.49 32.47L-196.49 32.47L-196.49 18.80Q-196.49 17.81-196.70 17.44Q-196.92 17.07-197.51 17.07L-197.51 17.07Q-197.98 17.07-198.38 17.11Q-198.77 17.14-198.89 17.14L-198.89 17.14L-199.28 16.67L-198.85 13.56L-193.26 13.60Q-192.07 13.60-189.45 13.50Q-186.83 13.40-185.97 13.36L-185.97 13.36Q-175.09 13.36-175.09 20.77L-175.09 20.77Q-175.09 25.42-179.82 28.22L-179.82 28.22L-177.38 32.31Q-176.35 34.01-175.39 34.89Q-174.42 35.78-173.56 35.78L-173.56 35.78L-173.12 36.41L-173.48 39.29L-179.58 39.72ZM-185.61 25.54Q-184.27 24.99-183.74 24.10Q-183.21 23.21-183.21 21.56L-183.21 21.56Q-183.21 19.86-184.29 19.08Q-185.38 18.29-187.66 18.29L-187.66 18.29Q-188.06 18.29-188.17 18.44Q-188.29 18.60-188.33 19.15L-188.33 19.15Q-188.53 21.83-188.61 25.14L-188.61 25.14L-185.61 25.54Z"/><path fill="#000000" opacity="1" d="M-150.55 30.03L-150.07 30.62Q-150.74 34.09-151.18 38.74L-151.18 38.74L-151.77 39.37Q-158.39 39.09-164.42 39.09L-164.42 39.09Q-168.28 39.09-172.73 39.48L-172.73 39.48L-172.37 35.86Q-170.88 35.62-170.35 34.89Q-169.81 34.17-169.81 32.39L-169.81 32.39L-169.77 19.19Q-169.77 17.89-169.97 17.48Q-170.17 17.07-170.84 17.07L-170.84 17.07Q-171.39 17.07-171.86 17.14L-171.86 17.14L-172.34 16.59L-171.98 13.48Q-171.19 13.48-170.76 13.52L-170.76 13.52Q-165.95 13.60-162.80 13.60L-162.80 13.60Q-159.10 13.60-155.69 13.46Q-152.28 13.32-150.63 13.13L-150.63 13.13L-150.11 13.76Q-150.43 15.37-150.69 17.62Q-150.94 19.86-151.02 21.60L-151.02 21.60L-156.46 21.95L-156.38 20.49Q-156.38 19.59-156.67 19.13Q-156.97 18.68-157.78 18.50Q-158.58 18.33-160.24 18.33L-160.24 18.33Q-161.07 18.33-161.32 18.52Q-161.58 18.72-161.58 19.39L-161.58 19.39L-161.82 23.84L-158.58 23.88Q-157.01 23.88-154.25 23.65L-154.25 23.65L-153.78 24.20L-154.33 28.73Q-158.11 28.61-159.06 28.61L-159.06 28.61Q-159.88 28.61-162.01 28.85L-162.01 28.85L-162.05 32.20Q-162.05 33.26-161.91 33.75Q-161.78 34.24-161.40 34.40Q-161.03 34.56-160.16 34.56L-160.16 34.56Q-158.39 34.56-157.52 34.24Q-156.65 33.93-156.24 33.08Q-155.83 32.23-155.59 30.38L-155.59 30.38L-150.55 30.03Z"/><path fill="#000000" opacity="1" d="M-136.91 39.56Q-137.55 39.48-139.59 39.29Q-141.64 39.09-143.18 39.09L-143.18 39.09Q-144.56 39.09-146.41 39.23Q-148.26 39.37-148.81 39.41L-148.81 39.41L-148.50 35.74Q-147.00 35.50-146.47 34.82Q-145.94 34.13-145.94 32.47L-145.94 32.47L-145.94 19.27Q-145.94 18.05-146.15 17.60Q-146.37 17.14-146.92 17.14L-146.92 17.14Q-147.36 17.14-147.71 17.18Q-148.06 17.22-148.18 17.22L-148.18 17.22L-148.58 16.67L-148.22 13.48Q-147.51 13.48-145.68 13.54Q-143.85 13.60-142.23 13.60L-142.23 13.60Q-141.09 13.60-138.77 13.50Q-136.44 13.40-135.69 13.36L-135.69 13.36Q-129.51 13.36-126.36 16.36Q-123.20 19.35-123.20 25.22L-123.20 25.22Q-123.20 29.59-124.88 32.83Q-126.55 36.06-129.65 37.81Q-132.74 39.56-136.91 39.56L-136.91 39.56ZM-137.11 18.37Q-137.55 18.37-137.72 18.60Q-137.90 18.84-137.94 19.43L-137.94 19.43Q-138.33 25.06-138.33 32.71L-138.33 32.71Q-138.33 33.85-138.04 34.24Q-137.74 34.64-136.91 34.64L-136.91 34.64Q-134.35 34.64-133.29 32.83Q-132.23 31.01-132.23 26.72L-132.23 26.72Q-132.23 23.45-132.68 21.66Q-133.13 19.86-134.18 19.11Q-135.22 18.37-137.11 18.37L-137.11 18.37Z"/><path fill="#000000" opacity="1" d="M-110.28 39.56Q-115.99 39.56-119.01 36.27Q-122.02 32.98-122.02 26.80L-122.02 26.80Q-122.02 20.18-118.71 16.65Q-115.40 13.13-109.14 13.13L-109.14 13.13Q-103.31 13.13-100.35 16.30Q-97.40 19.47-97.40 25.69L-97.40 25.69Q-97.40 32.35-100.75 35.96Q-104.09 39.56-110.28 39.56L-110.28 39.56ZM-109.53 34.60Q-107.84 34.60-107.13 33.12Q-106.42 31.64-106.42 28.18L-106.42 28.18Q-106.42 24.55-106.75 22.46Q-107.09 20.38-107.86 19.45Q-108.63 18.52-109.97 18.52L-109.97 18.52Q-111.62 18.52-112.31 19.96Q-113.00 21.40-113.00 24.87L-113.00 24.87Q-113.00 28.49-112.66 30.60Q-112.33 32.71-111.58 33.65Q-110.83 34.60-109.53 34.60L-109.53 34.60Z"/><path fill="#000000" opacity="1" d="M-76.44 39.72Q-78.09 39.72-79.13 38.89Q-80.18 38.07-80.93 36.14L-80.93 36.14L-83.37 30.11L-85.58 30.11L-85.58 32.79Q-85.58 34.09-85.40 34.62Q-85.22 35.15-84.67 35.35Q-84.12 35.54-82.78 35.62L-82.78 35.62L-82.58 35.94L-82.98 39.25Q-83.76 39.21-85.75 39.15Q-87.74 39.09-89.44 39.09L-89.44 39.09Q-91.25 39.09-93.42 39.23Q-95.58 39.37-96.25 39.44L-96.25 39.44L-95.90 35.82Q-94.44 35.58-93.89 34.85Q-93.34 34.13-93.34 32.47L-93.34 32.47L-93.34 18.80Q-93.34 17.81-93.56 17.44Q-93.77 17.07-94.36 17.07L-94.36 17.07Q-94.84 17.07-95.23 17.11Q-95.62 17.14-95.74 17.14L-95.74 17.14L-96.14 16.67L-95.70 13.56L-90.11 13.60Q-88.93 13.60-86.31 13.50Q-83.69 13.40-82.82 13.36L-82.82 13.36Q-71.94 13.36-71.94 20.77L-71.94 20.77Q-71.94 25.42-76.67 28.22L-76.67 28.22L-74.23 32.31Q-73.21 34.01-72.24 34.89Q-71.27 35.78-70.41 35.78L-70.41 35.78L-69.97 36.41L-70.33 39.29L-76.44 39.72ZM-82.46 25.54Q-81.12 24.99-80.59 24.10Q-80.06 23.21-80.06 21.56L-80.06 21.56Q-80.06 19.86-81.14 19.08Q-82.23 18.29-84.51 18.29L-84.51 18.29Q-84.91 18.29-85.03 18.44Q-85.14 18.60-85.18 19.15L-85.18 19.15Q-85.38 21.83-85.46 25.14L-85.46 25.14L-82.46 25.54Z"/><path fill="#000000" opacity="1" d="M-56.66 39.33L-56.97 38.97L-56.74 35.66Q-55.40 35.50-54.94 35.41Q-54.49 35.31-54.35 35.09Q-54.21 34.87-54.21 34.32L-54.21 34.32L-54.29 33.61L-54.53 32.08L-57.56 32.00Q-58.15 32.00-60.72 32.20L-60.72 32.20L-61.11 33.93Q-61.23 34.56-61.23 34.80L-61.23 34.80Q-61.23 35.31-61.01 35.45Q-60.79 35.58-60.01 35.58L-60.01 35.58L-58.98 35.58L-58.67 35.98L-58.98 39.25Q-59.57 39.21-61.33 39.17Q-63.08 39.13-65.05 39.13L-65.05 39.13L-70.29 39.17L-70.01 35.74Q-68.60 35.39-68.00 33.57L-68.00 33.57L-61.74 13.80L-51.38 13.17L-50.79 13.64Q-50.20 16.08-48.38 23.23Q-46.57 30.38-45.86 33.06L-45.86 33.06Q-45.51 34.40-44.97 35.01Q-44.44 35.62-43.54 35.70L-43.54 35.70L-43.26 36.10L-43.58 39.21Q-44.13 39.21-45.74 39.17Q-47.36 39.13-49.13 39.13L-49.13 39.13Q-51.46 39.13-53.74 39.21Q-56.03 39.29-56.66 39.33L-56.66 39.33ZM-59.45 27.23L-57.45 27.23Q-56.81 27.23-55.40 27.15L-55.40 27.15L-56.74 20.26L-57.60 20.26L-59.45 27.23Z"/><path fill="#000000" opacity="1" d=""/><path fill="#000000" opacity="1" d="M-25.22 39.56Q-25.85 39.48-27.90 39.29Q-29.94 39.09-31.48 39.09L-31.48 39.09Q-32.86 39.09-34.71 39.23Q-36.56 39.37-37.11 39.41L-37.11 39.41L-36.80 35.74Q-35.30 35.50-34.77 34.82Q-34.24 34.13-34.24 32.47L-34.24 32.47L-34.24 19.27Q-34.24 18.05-34.46 17.60Q-34.67 17.14-35.22 17.14L-35.22 17.14Q-35.66 17.14-36.01 17.18Q-36.37 17.22-36.48 17.22L-36.48 17.22L-36.88 16.67L-36.52 13.48Q-35.81 13.48-33.98 13.54Q-32.15 13.60-30.53 13.60L-30.53 13.60Q-29.39 13.60-27.07 13.50Q-24.74 13.40-23.99 13.36L-23.99 13.36Q-17.81 13.36-14.66 16.36Q-11.50 19.35-11.50 25.22L-11.50 25.22Q-11.50 29.59-13.18 32.83Q-14.85 36.06-17.95 37.81Q-21.04 39.56-25.22 39.56L-25.22 39.56ZM-25.41 18.37Q-25.85 18.37-26.02 18.60Q-26.20 18.84-26.24 19.43L-26.24 19.43Q-26.63 25.06-26.63 32.71L-26.63 32.71Q-26.63 33.85-26.34 34.24Q-26.04 34.64-25.22 34.64L-25.22 34.64Q-22.65 34.64-21.59 32.83Q-20.53 31.01-20.53 26.72L-20.53 26.72Q-20.53 23.45-20.98 21.66Q-21.43 19.86-22.48 19.11Q-23.52 18.37-25.41 18.37L-25.41 18.37Z"/><path fill="#000000" opacity="1" d="M11.78 30.03L12.25 30.62Q11.58 34.09 11.15 38.74L11.15 38.74L10.56 39.37Q3.94 39.09-2.09 39.09L-2.09 39.09Q-5.95 39.09-10.40 39.48L-10.40 39.48L-10.05 35.86Q-8.55 35.62-8.02 34.89Q-7.49 34.17-7.49 32.39L-7.49 32.39L-7.45 19.19Q-7.45 17.89-7.64 17.48Q-7.84 17.07-8.51 17.07L-8.51 17.07Q-9.06 17.07-9.53 17.14L-9.53 17.14L-10.01 16.59L-9.65 13.48Q-8.86 13.48-8.43 13.52L-8.43 13.52Q-3.62 13.60-0.47 13.60L-0.47 13.60Q3.23 13.60 6.64 13.46Q10.05 13.32 11.70 13.13L11.70 13.13L12.21 13.76Q11.90 15.37 11.64 17.62Q11.39 19.86 11.31 21.60L11.31 21.60L5.87 21.95L5.95 20.49Q5.95 19.59 5.65 19.13Q5.36 18.68 4.55 18.50Q3.74 18.33 2.09 18.33L2.09 18.33Q1.26 18.33 1.00 18.52Q0.75 18.72 0.75 19.39L0.75 19.39L0.51 23.84L3.74 23.88Q5.32 23.88 8.08 23.65L8.08 23.65L8.55 24.20L8.00 28.73Q4.22 28.61 3.27 28.61L3.27 28.61Q2.44 28.61 0.32 28.85L0.32 28.85L0.28 32.20Q0.28 33.26 0.41 33.75Q0.55 34.24 0.93 34.40Q1.30 34.56 2.17 34.56L2.17 34.56Q3.94 34.56 4.81 34.24Q5.67 33.93 6.09 33.08Q6.50 32.23 6.74 30.38L6.74 30.38L11.78 30.03Z"/><path fill="#000000" opacity="1" d=""/><path fill="#000000" opacity="1" d="M19.07 39.44L19.42 35.82Q20.88 35.58 21.43 34.85Q21.99 34.13 21.99 32.47L21.99 32.47L21.99 19.19Q21.99 17.97 21.77 17.52Q21.55 17.07 20.96 17.07L20.96 17.07Q20.49 17.07 20.09 17.11Q19.70 17.14 19.58 17.14L19.58 17.14L19.19 16.67L19.58 13.60L25.22 13.60Q26.32 13.60 28.88 13.50Q31.44 13.40 32.31 13.36L32.31 13.36Q38.53 13.36 40.76 15.84Q42.99 18.33 42.99 21.56L42.99 21.56Q42.99 24.00 41.63 26.17Q40.27 28.33 38.00 29.61Q35.74 30.90 33.14 30.90L33.14 30.90L29.75 30.90L29.75 32.79Q29.75 34.44 30.14 35.03Q30.53 35.62 31.72 35.62L31.72 35.62Q32.15 35.62 32.52 35.58Q32.90 35.54 33.02 35.54L33.02 35.54L33.21 35.86L32.82 39.25Q32.03 39.21 30.06 39.15Q28.09 39.09 26.40 39.09L26.40 39.09Q25.26 39.09 22.62 39.25Q19.98 39.41 19.07 39.44L19.07 39.44ZM32.54 26.44Q33.73 26.01 34.30 24.93Q34.87 23.84 34.87 21.95L34.87 21.95Q34.87 20.02 33.88 19.15Q32.90 18.29 30.81 18.29L30.81 18.29Q30.42 18.29 30.30 18.44Q30.18 18.60 30.14 19.15L30.14 19.15Q29.94 22.70 29.83 26.05L29.83 26.05L32.54 26.44Z"/><path fill="#000000" opacity="1" d="M62.76 39.72Q61.11 39.72 60.07 38.89Q59.02 38.07 58.27 36.14L58.27 36.14L55.83 30.11L53.62 30.11L53.62 32.79Q53.62 34.09 53.80 34.62Q53.98 35.15 54.53 35.35Q55.08 35.54 56.42 35.62L56.42 35.62L56.62 35.94L56.22 39.25Q55.44 39.21 53.45 39.15Q51.46 39.09 49.76 39.09L49.76 39.09Q47.95 39.09 45.78 39.23Q43.62 39.37 42.95 39.44L42.95 39.44L43.30 35.82Q44.76 35.58 45.31 34.85Q45.86 34.13 45.86 32.47L45.86 32.47L45.86 18.80Q45.86 17.81 45.64 17.44Q45.43 17.07 44.84 17.07L44.84 17.07Q44.36 17.07 43.97 17.11Q43.58 17.14 43.46 17.14L43.46 17.14L43.06 16.67L43.50 13.56L49.09 13.60Q50.27 13.60 52.89 13.50Q55.51 13.40 56.38 13.36L56.38 13.36Q67.26 13.36 67.26 20.77L67.26 20.77Q67.26 25.42 62.53 28.22L62.53 28.22L64.97 32.31Q65.99 34.01 66.96 34.89Q67.93 35.78 68.79 35.78L68.79 35.78L69.23 36.41L68.87 39.29L62.76 39.72ZM56.74 25.54Q58.08 24.99 58.61 24.10Q59.14 23.21 59.14 21.56L59.14 21.56Q59.14 19.86 58.06 19.08Q56.97 18.29 54.69 18.29L54.69 18.29Q54.29 18.29 54.17 18.44Q54.06 18.60 54.02 19.15L54.02 19.15Q53.82 21.83 53.74 25.14L53.74 25.14L56.74 25.54Z"/><path fill="#000000" opacity="1" d="M81.05 39.56Q75.33 39.56 72.32 36.27Q69.30 32.98 69.30 26.80L69.30 26.80Q69.30 20.18 72.61 16.65Q75.92 13.13 82.19 13.13L82.19 13.13Q88.02 13.13 90.97 16.30Q93.93 19.47 93.93 25.69L93.93 25.69Q93.93 32.35 90.58 35.96Q87.23 39.56 81.05 39.56L81.05 39.56ZM81.79 34.60Q83.49 34.60 84.20 33.12Q84.91 31.64 84.91 28.18L84.91 28.18Q84.91 24.55 84.57 22.46Q84.24 20.38 83.47 19.45Q82.70 18.52 81.36 18.52L81.36 18.52Q79.71 18.52 79.02 19.96Q78.33 21.40 78.33 24.87L78.33 24.87Q78.33 28.49 78.66 30.60Q79.00 32.71 79.75 33.65Q80.49 34.60 81.79 34.60L81.79 34.60Z"/><path fill="#000000" opacity="1" d="M95.07 39.44L95.43 35.82Q96.88 35.58 97.44 34.85Q97.99 34.13 97.99 32.47L97.99 32.47L97.99 19.19Q97.99 17.97 97.77 17.52Q97.55 17.07 96.96 17.07L96.96 17.07Q96.49 17.07 96.10 17.11Q95.70 17.14 95.58 17.14L95.58 17.14L95.19 16.67L95.58 13.60L101.22 13.60Q102.32 13.60 104.88 13.50Q107.44 13.40 108.31 13.36L108.31 13.36Q114.54 13.36 116.76 15.84Q118.99 18.33 118.99 21.56L118.99 21.56Q118.99 24.00 117.63 26.17Q116.27 28.33 114.00 29.61Q111.74 30.90 109.14 30.90L109.14 30.90L105.75 30.90L105.75 32.79Q105.75 34.44 106.14 35.03Q106.54 35.62 107.72 35.62L107.72 35.62Q108.15 35.62 108.53 35.58Q108.90 35.54 109.02 35.54L109.02 35.54L109.22 35.86L108.82 39.25Q108.03 39.21 106.06 39.15Q104.09 39.09 102.40 39.09L102.40 39.09Q101.26 39.09 98.62 39.25Q95.98 39.41 95.07 39.44L95.07 39.44ZM108.55 26.44Q109.73 26.01 110.30 24.93Q110.87 23.84 110.87 21.95L110.87 21.95Q110.87 20.02 109.89 19.15Q108.90 18.29 106.81 18.29L106.81 18.29Q106.42 18.29 106.30 18.44Q106.18 18.60 106.14 19.15L106.14 19.15Q105.95 22.70 105.83 26.05L105.83 26.05L108.55 26.44Z"/><path fill="#000000" opacity="1" d="M118.99 39.29L119.30 35.94Q120.88 35.58 121.37 34.95Q121.86 34.32 121.86 32.71L121.86 32.71L121.86 19.08Q121.86 17.85 121.59 17.46Q121.31 17.07 120.48 17.07L120.48 17.07L119.46 17.11L119.11 16.55L119.42 13.60L125.76 13.60Q126.71 13.60 132.54 13.40L132.54 13.40L132.27 16.95Q130.93 17.14 130.51 17.52Q130.10 17.89 130.02 19.00L130.02 19.00Q129.63 25.81 129.63 32.94L129.63 32.94Q129.63 34.60 129.88 35.13Q130.14 35.66 130.89 35.66L130.89 35.66Q131.64 35.66 132.15 35.54L132.15 35.54L132.46 35.94L132.11 39.25Q127.77 39.09 125.53 39.09L125.53 39.09Q123.40 39.09 118.99 39.29L118.99 39.29Z"/><path fill="#000000" opacity="1" d="M155.67 30.03L156.14 30.62Q155.47 34.09 155.04 38.74L155.04 38.74L154.45 39.37Q147.83 39.09 141.80 39.09L141.80 39.09Q137.94 39.09 133.49 39.48L133.49 39.48L133.84 35.86Q135.34 35.62 135.87 34.89Q136.40 34.17 136.40 32.39L136.40 32.39L136.44 19.19Q136.44 17.89 136.24 17.48Q136.05 17.07 135.38 17.07L135.38 17.07Q134.83 17.07 134.35 17.14L134.35 17.14L133.88 16.59L134.24 13.48Q135.02 13.48 135.46 13.52L135.46 13.52Q140.26 13.60 143.42 13.60L143.42 13.60Q147.12 13.60 150.53 13.46Q153.94 13.32 155.59 13.13L155.59 13.13L156.10 13.76Q155.79 15.37 155.53 17.62Q155.28 19.86 155.20 21.60L155.20 21.60L149.76 21.95L149.84 20.49Q149.84 19.59 149.54 19.13Q149.25 18.68 148.44 18.50Q147.63 18.33 145.98 18.33L145.98 18.33Q145.15 18.33 144.89 18.52Q144.64 18.72 144.64 19.39L144.64 19.39L144.40 23.84L147.63 23.88Q149.21 23.88 151.97 23.65L151.97 23.65L152.44 24.20L151.89 28.73Q148.10 28.61 147.16 28.61L147.16 28.61Q146.33 28.61 144.20 28.85L144.20 28.85L144.16 32.20Q144.16 33.26 144.30 33.75Q144.44 34.24 144.81 34.40Q145.19 34.56 146.06 34.56L146.06 34.56Q147.83 34.56 148.70 34.24Q149.56 33.93 149.98 33.08Q150.39 32.23 150.63 30.38L150.63 30.38L155.67 30.03Z"/><path fill="#000000" opacity="1" d="M169.30 39.56Q168.67 39.48 166.62 39.29Q164.57 39.09 163.04 39.09L163.04 39.09Q161.66 39.09 159.81 39.23Q157.95 39.37 157.40 39.41L157.40 39.41L157.72 35.74Q159.22 35.50 159.75 34.82Q160.28 34.13 160.28 32.47L160.28 32.47L160.28 19.27Q160.28 18.05 160.06 17.60Q159.85 17.14 159.29 17.14L159.29 17.14Q158.86 17.14 158.51 17.18Q158.15 17.22 158.03 17.22L158.03 17.22L157.64 16.67L157.99 13.48Q158.70 13.48 160.54 13.54Q162.37 13.60 163.98 13.60L163.98 13.60Q165.13 13.60 167.45 13.50Q169.77 13.40 170.52 13.36L170.52 13.36Q176.71 13.36 179.86 16.36Q183.01 19.35 183.01 25.22L183.01 25.22Q183.01 29.59 181.34 32.83Q179.66 36.06 176.57 37.81Q173.48 39.56 169.30 39.56L169.30 39.56ZM169.10 18.37Q168.67 18.37 168.49 18.60Q168.32 18.84 168.28 19.43L168.28 19.43Q167.88 25.06 167.88 32.71L167.88 32.71Q167.88 33.85 168.18 34.24Q168.47 34.64 169.30 34.64L169.30 34.64Q171.86 34.64 172.93 32.83Q173.99 31.01 173.99 26.72L173.99 26.72Q173.99 23.45 173.54 21.66Q173.08 19.86 172.04 19.11Q171.00 18.37 169.10 18.37L169.10 18.37Z"/><path fill="#000000" opacity="1" d="M196.37 39.33L196.05 38.97L196.29 35.66Q197.63 35.50 198.08 35.41Q198.54 35.31 198.67 35.09Q198.81 34.87 198.81 34.32L198.81 34.32L198.73 33.61L198.50 32.08L195.46 32.00Q194.87 32.00 192.31 32.20L192.31 32.20L191.92 33.93Q191.80 34.56 191.80 34.80L191.80 34.80Q191.80 35.31 192.02 35.45Q192.23 35.58 193.02 35.58L193.02 35.58L194.04 35.58L194.36 35.98L194.04 39.25Q193.45 39.21 191.70 39.17Q189.95 39.13 187.98 39.13L187.98 39.13L182.74 39.17L183.01 35.74Q184.43 35.39 185.02 33.57L185.02 33.57L191.29 13.80L201.65 13.17L202.24 13.64Q202.83 16.08 204.64 23.23Q206.46 30.38 207.16 33.06L207.16 33.06Q207.52 34.40 208.05 35.01Q208.58 35.62 209.49 35.70L209.49 35.70L209.77 36.10L209.45 39.21Q208.90 39.21 207.28 39.17Q205.67 39.13 203.89 39.13L203.89 39.13Q201.57 39.13 199.28 39.21Q197.00 39.29 196.37 39.33L196.37 39.33ZM193.57 27.23L195.58 27.23Q196.21 27.23 197.63 27.15L197.63 27.15L196.29 20.26L195.42 20.26L193.57 27.23Z"/><path fill="#000000" opacity="1" d="M222.14 39.56Q221.51 39.48 219.46 39.29Q217.41 39.09 215.87 39.09L215.87 39.09Q214.49 39.09 212.64 39.23Q210.79 39.37 210.24 39.41L210.24 39.41L210.55 35.74Q212.05 35.50 212.58 34.82Q213.11 34.13 213.11 32.47L213.11 32.47L213.11 19.27Q213.11 18.05 212.90 17.60Q212.68 17.14 212.13 17.14L212.13 17.14Q211.70 17.14 211.34 17.18Q210.99 17.22 210.87 17.22L210.87 17.22L210.47 16.67L210.83 13.48Q211.54 13.48 213.37 13.54Q215.20 13.60 216.82 13.60L216.82 13.60Q217.96 13.60 220.29 13.50Q222.61 13.40 223.36 13.36L223.36 13.36Q229.54 13.36 232.70 16.36Q235.85 19.35 235.85 25.22L235.85 25.22Q235.85 29.59 234.17 32.83Q232.50 36.06 229.41 37.81Q226.31 39.56 222.14 39.56L222.14 39.56ZM221.94 18.37Q221.51 18.37 221.33 18.60Q221.15 18.84 221.11 19.43L221.11 19.43Q220.72 25.06 220.72 32.71L220.72 32.71Q220.72 33.85 221.01 34.24Q221.31 34.64 222.14 34.64L222.14 34.64Q224.70 34.64 225.76 32.83Q226.83 31.01 226.83 26.72L226.83 26.72Q226.83 23.45 226.37 21.66Q225.92 19.86 224.88 19.11Q223.83 18.37 221.94 18.37L221.94 18.37Z"/><path fill="#000000" opacity="1" d="M259.13 30.03L259.61 30.62Q258.94 34.09 258.50 38.74L258.50 38.74L257.91 39.37Q251.29 39.09 245.26 39.09L245.26 39.09Q241.40 39.09 236.95 39.48L236.95 39.48L237.31 35.86Q238.80 35.62 239.33 34.89Q239.87 34.17 239.87 32.39L239.87 32.39L239.91 19.19Q239.91 17.89 239.71 17.48Q239.51 17.07 238.84 17.07L238.84 17.07Q238.29 17.07 237.82 17.14L237.82 17.14L237.35 16.59L237.70 13.48Q238.49 13.48 238.92 13.52L238.92 13.52Q243.73 13.60 246.88 13.60L246.88 13.60Q250.58 13.60 253.99 13.46Q257.40 13.32 259.05 13.13L259.05 13.13L259.57 13.76Q259.25 15.37 259.00 17.62Q258.74 19.86 258.66 21.60L258.66 21.60L253.22 21.95L253.30 20.49Q253.30 19.59 253.01 19.13Q252.71 18.68 251.90 18.50Q251.10 18.33 249.44 18.33L249.44 18.33Q248.61 18.33 248.36 18.52Q248.10 18.72 248.10 19.39L248.10 19.39L247.86 23.84L251.10 23.88Q252.67 23.88 255.43 23.65L255.43 23.65L255.90 24.20L255.35 28.73Q251.57 28.61 250.62 28.61L250.62 28.61Q249.80 28.61 247.67 28.85L247.67 28.85L247.63 32.20Q247.63 33.26 247.77 33.75Q247.90 34.24 248.28 34.40Q248.65 34.56 249.52 34.56L249.52 34.56Q251.29 34.56 252.16 34.24Q253.03 33.93 253.44 33.08Q253.85 32.23 254.09 30.38L254.09 30.38L259.13 30.03Z"/><path fill="#000000" opacity="1" d="M268.94 39.56Q266.90 39.56 265.16 39.19Q263.43 38.81 262.31 38.36Q261.18 37.91 261.18 37.87L261.18 37.87L260.71 37.16Q260.83 36.53 261.14 34.40Q261.46 32.27 261.54 30.66L261.54 30.66L266.50 30.30Q266.50 32.39 267.37 33.36Q268.23 34.32 269.97 34.32L269.97 34.32Q271.19 34.32 271.88 33.89Q272.57 33.46 272.57 32.71L272.57 32.71Q272.57 31.76 271.58 31.11Q270.60 30.46 268.51 29.59L268.51 29.59L266.93 28.89Q264.18 27.66 262.54 25.99Q260.91 24.32 260.91 21.56L260.91 21.56Q260.91 19.04 262.42 17.12Q263.94 15.21 266.68 14.17Q269.42 13.13 273.04 13.13L273.04 13.13Q274.97 13.13 276.65 13.36Q278.32 13.60 279.33 13.87Q280.33 14.15 280.57 14.23L280.57 14.23L281.04 15.10Q280.92 15.65 280.55 17.70Q280.17 19.74 279.98 21.95L279.98 21.95L275.41 22.27L274.93 21.95L274.93 21.32Q274.93 18.56 272.06 18.56L272.06 18.56Q270.95 18.56 270.26 19.06Q269.57 19.55 269.57 20.34L269.57 20.34Q269.57 21.32 270.54 21.93Q271.50 22.54 273.71 23.49L273.71 23.49L274.54 23.84Q276.55 24.67 277.97 25.56Q279.38 26.44 280.33 27.86Q281.28 29.28 281.28 31.33L281.28 31.33Q281.28 33.89 279.78 35.74Q278.28 37.59 275.50 38.58Q272.73 39.56 268.94 39.56L268.94 39.56Z"/></g><g transform="matrix(0.5 0 0 0.5 281.7439410923074 312.27674581497894)" style=""  ><path fill="#000000" opacity="1" d="M-73.89 24.23Q-77.75 24.23-81.02 23.53Q-84.29 22.82-86.41 21.97Q-88.53 21.11-88.53 21.04L-88.53 21.04L-89.42 19.70Q-89.20 18.51-88.60 14.50Q-88.01 10.49-87.86 7.44L-87.86 7.44L-78.50 6.77Q-78.50 10.71-76.86 12.53Q-75.23 14.35-71.96 14.35L-71.96 14.35Q-69.66 14.35-68.36 13.53Q-67.06 12.72-67.06 11.30L-67.06 11.30Q-67.06 9.52-68.91 8.29Q-70.77 7.07-74.71 5.43L-74.71 5.43L-77.68 4.10Q-82.88 1.79-85.96-1.36Q-89.05-4.52-89.05-9.72L-89.05-9.72Q-89.05-14.48-86.19-18.08Q-83.33-21.69-78.16-23.65Q-73.00-25.62-66.16-25.62L-66.16-25.62Q-62.52-25.62-59.37-25.18Q-56.21-24.73-54.31-24.21Q-52.42-23.69-51.97-23.54L-51.97-23.54L-51.08-21.91Q-51.30-20.87-52.01-17.00Q-52.72-13.14-53.09-8.98L-53.09-8.98L-61.71-8.39L-62.60-8.98L-62.60-10.17Q-62.60-15.37-68.02-15.37L-68.02-15.37Q-70.10-15.37-71.40-14.44Q-72.70-13.51-72.70-12.03L-72.70-12.03Q-72.70-10.17-70.88-9.02Q-69.06-7.87-64.90-6.08L-64.90-6.08L-63.34-5.41Q-59.55-3.85-56.88-2.18Q-54.20-0.51-52.42 2.17Q-50.64 4.84-50.64 8.70L-50.64 8.70Q-50.64 13.53-53.46 17.03Q-56.28 20.52-61.52 22.37Q-66.76 24.23-73.89 24.23L-73.89 24.23Z"/><path fill="#000000" opacity="1" d="M-24.11 23.79L-24.70 23.12L-24.26 16.88Q-21.73 16.58-20.88 16.39Q-20.02 16.21-19.76 15.80Q-19.50 15.39-19.50 14.35L-19.50 14.35L-19.65 13.01L-20.10 10.12L-25.82 9.97Q-26.93 9.97-31.76 10.34L-31.76 10.34L-32.51 13.61Q-32.73 14.80-32.73 15.24L-32.73 15.24Q-32.73 16.21-32.32 16.47Q-31.91 16.73-30.43 16.73L-30.43 16.73L-28.49 16.73L-27.90 17.47L-28.49 23.64Q-29.61 23.56-32.91 23.49Q-36.22 23.41-39.94 23.41L-39.94 23.41L-49.82 23.49L-49.30 17.03Q-46.62 16.36-45.51 12.94L-45.51 12.94L-33.69-24.36L-14.15-25.55L-13.04-24.66Q-11.93-20.05-8.51-6.57Q-5.09 6.92-3.75 11.97L-3.75 11.97Q-3.08 14.50-2.08 15.65Q-1.08 16.80 0.63 16.95L0.63 16.95L1.15 17.69L0.56 23.56Q-0.48 23.56-3.53 23.49Q-6.58 23.41-9.92 23.41L-9.92 23.41Q-14.30 23.41-18.61 23.56Q-22.92 23.71-24.11 23.79L-24.11 23.79ZM-29.39 0.98L-25.60 0.98Q-24.41 0.98-21.73 0.83L-21.73 0.83L-24.26-12.17L-25.89-12.17L-29.39 0.98Z"/><path fill="#000000" opacity="1" d="M5.76 24.01L6.35 17.17Q9.62 16.95 11.22 16.39Q12.82 15.84 13.41 14.72Q14.01 13.61 14.01 11.30L14.01 11.30L14.01 10.12Q14.01 8.48 13.56 7.03Q13.11 5.58 11.93 3.43L11.93 3.43L3.98-11.36Q1.75-15.44-3.38-17.60L-3.38-17.60L-3.68-18.04L-2.93-24.81L8.21-24.66Q10.36-24.66 15.16-24.88Q19.95-25.10 21.58-25.18L21.58-25.18L22.10-24.36L21.44-18.27Q18.39-18.27 18.39-16.41L18.39-16.41Q18.39-15.67 19.65-12.51Q20.92-9.35 21.29-8.39L21.29-8.39L22.55-5.41L23.59-5.41L26.64-13.88Q27.60-16.04 27.60-17.15L27.60-17.15Q27.60-17.82 26.97-18.08Q26.34-18.34 24.78-18.34L24.78-18.34L24.56-18.79L25.15-24.66L36.89-24.66Q39.27-24.66 41.91-24.77Q44.54-24.88 45.29-24.95L45.29-24.95L45.58-24.36L44.99-17.90Q42.61-16.56 40.46-14.11Q38.30-11.65 36.74-8.53L36.74-8.53L29.98 4.99Q29.24 6.77 29.05 8.15Q28.87 9.52 28.87 11.90L28.87 11.90Q28.87 14.50 29.68 15.54Q30.50 16.58 32.58 16.58L32.58 16.58Q33.99 16.58 35.03 16.51Q36.07 16.43 36.37 16.36L36.37 16.36L36.74 16.80L36.07 23.79Q34.29 23.71 28.83 23.53Q23.37 23.34 20.69 23.34L20.69 23.34Q17.72 23.34 12.56 23.64Q7.39 23.94 5.76 24.01L5.76 24.01Z"/><path fill="#000000" opacity="1" d="M88.38 6.25L89.27 7.37Q88.01 13.90 87.19 22.67L87.19 22.67L86.08 23.86Q73.59 23.34 62.23 23.34L62.23 23.34Q54.94 23.34 46.55 24.08L46.55 24.08L47.22 17.25Q50.04 16.80 51.04 15.43Q52.05 14.05 52.05 10.71L52.05 10.71L52.12-14.18Q52.12-16.63 51.75-17.41Q51.38-18.19 50.12-18.19L50.12-18.19Q49.08-18.19 48.18-18.04L48.18-18.04L47.29-19.08L47.96-24.95Q49.45-24.95 50.26-24.88L50.26-24.88Q59.33-24.73 65.27-24.73L65.27-24.73Q72.26-24.73 78.68-24.99Q85.11-25.25 88.23-25.62L88.23-25.62L89.20-24.43Q88.60-21.39 88.12-17.15Q87.64-12.92 87.49-9.65L87.49-9.65L77.23-8.98L77.38-11.73Q77.38-13.44 76.83-14.29Q76.27-15.15 74.75-15.48Q73.22-15.82 70.10-15.82L70.10-15.82Q68.54-15.82 68.06-15.44Q67.58-15.07 67.58-13.81L67.58-13.81L67.13-5.41L73.22-5.34Q76.19-5.34 81.40-5.78L81.40-5.78L82.29-4.74L81.25 3.80Q74.11 3.58 72.33 3.58L72.33 3.58Q70.77 3.58 66.76 4.02L66.76 4.02L66.68 10.34Q66.68 12.34 66.94 13.27Q67.20 14.20 67.91 14.50Q68.62 14.80 70.25 14.80L70.25 14.80Q73.59 14.80 75.23 14.20Q76.86 13.61 77.64 12.01Q78.42 10.41 78.87 6.92L78.87 6.92L88.38 6.25Z"/></g><g transform="matrix(5.3943401379336455 0 0 1.6331642257632608 277.1186471568284 339.73176982832507)"  >
<g style=""   >
		<g transform="matrix(1 0 0 1 0.4195011164935778 1.0940000000000012)"  >
<path style="stroke: none; stroke-width: 1; stroke-dasharray: none; stroke-linecap: butt; stroke-dashoffset: 0; stroke-linejoin: miter; stroke-miterlimit: 4; fill: rgb(0,0,0); fill-rule: nonzero; opacity: 1;"  transform=" translate(-49.91950111649358, -50.594)" d="M 80.145 9.869 H 19.695 c -0.414 0 -0.75 0.336 -0.75 0.75 v 79.95 c 0 0.414 0.336 0.75 0.75 0.75 h 60.449 c 0.415 0 0.75 -0.336 0.75 -0.75 v -79.95 C 80.895 10.205 80.56 9.869 80.145 9.869 z M 79.395 11.369 v 78.45 H 20.445 v -78.45 H 79.395 z" stroke-linecap="round" />
</g>
		<g transform="matrix(1 0 0 1 0.615000000000002 0.9469999999999956)"  >
<path style="stroke: none; stroke-width: 1; stroke-dasharray: none; stroke-linecap: butt; stroke-dashoffset: 0; stroke-linejoin: miter; stroke-miterlimit: 4; fill: rgb(0,0,0); fill-rule: nonzero; opacity: 1;"  transform=" translate(-50.115, -50.446999999999996)" d="M 13.845 97.613 h 72.54 c 0.553 0 1 -0.447 1 -1 V 4.281 c 0 -0.552 -0.447 -1 -1 -1 h -72.54 c -0.552 0 -1 0.448 -1 1 v 92.332 C 12.845 97.166 13.293 97.613 13.845 97.613 z M 14.595 95.863 V 5.031 h 71.04 v 90.832 H 14.595 z" stroke-linecap="round" />
</g>
</g>
</g>
<g transform="matrix(0.22984603053756852 0 0 0.22984603053756852 279.8938235181158 204.2091048205612)"  >
<g style=""   >
		<g transform="matrix(1 0 0 1 -223.79999999999998 80.39999999999995)"  >
<path style="stroke: none; stroke-width: 1; stroke-dasharray: none; stroke-linecap: butt; stroke-dashoffset: 0; stroke-linejoin: miter; stroke-miterlimit: 4; fill: rgb(255,255,255); fill-rule: nonzero; opacity: 1;"  transform=" translate(-196.65, -675.1999999999999)" d="M 323.7 514.7 c 4.4 -4.6 10.5 -7.3 17 -7.3 h 0 c 6.4 0 12.5 2.7 17.1 7.5 c 1.2 1.2 2.3 2.5 3.3 3.6 c 0.8 0.9 1.6 1.8 2.3 2.5 c 1.8 1.9 3.7 3.7 5.5 5.4 c 3.8 3.4 7.9 6.6 12.1 9.3 c 3 2 6.2 3.8 9.4 5.4 v -59.7 H 120.2 l 39.2 39.2 L 2.8 677.1 l 75.3 75.3 l 96.2 -96.2 l 41.3 41.3 l -96.2 96.2 l 75.3 75.3 l 156.6 -156.6 l 39.2 39.2 V 591.7 l -0.2 -0.1 c -1.3 -0.3 -2.4 -0.8 -3 -1.1 c -0.7 -0.2 -1.5 -0.5 -2.3 -0.8 c -1.3 -0.5 -2.6 -1 -3.8 -1.4 c -3.8 -1.3 -7.2 -2.9 -10.3 -4.5 c -6.2 -3 -12.3 -6.6 -18.1 -10.6 c -6 -4.1 -11.3 -8.2 -16 -12.6 c -2.3 -2.1 -4.7 -4.4 -7.3 -7.2 l -0.8 -0.9 c -1.9 -2 -4.1 -4.3 -6.1 -6.9 c -4.7 -6.3 -5.4 -12.3 -5.1 -16.2 C 317.7 523.9 320 518.7 323.7 514.7 z" stroke-linecap="round" />
</g>
		<g transform="matrix(1 0 0 1 225.2959224138488 63.4499999999999)"  >
<path style="stroke: none; stroke-width: 1; stroke-dasharray: none; stroke-linecap: butt; stroke-dashoffset: 0; stroke-linejoin: miter; stroke-miterlimit: 4; fill: rgb(255,255,255); fill-rule: nonzero; opacity: 1;"  transform=" translate(-645.7459224138488, -658.2499999999999)" d="M 842.3 854 c 0 0 -0.1 0 -0.1 0 c -11.9 -0.3 -57.8 -1.4 -68.9 -1.7 c -1.1 -0.1 -1.1 -0.9 -1.2 -1.5 c 0 -0.7 -0.1 -1.3 -0.1 -2 c -0.2 -2.9 -1.7 -23.7 -2.2 -31.3 c 0 -0.4 0 -3.5 -0.4 -3.5 c -2 -0.1 -34 -2.4 -36.4 -2.6 c -0.8 -0.1 -0.6 -1 -0.7 -1.7 c -0.5 -7.4 -2.4 -34.5 -2.5 -35.2 c 0 -0.3 -0.3 -0.2 -0.6 -0.2 c -12.2 -0.9 -24.2 -1.7 -36.3 -2.6 c -0.2 0 -0.2 -0.2 -0.2 -0.5 c -0.3 -3.6 -2 -28.1 -2.5 -35.1 c 0 -0.5 -0.1 -0.9 -0.1 -1.4 c 0 0 -34.9 -2.5 -36 -2.6 c -0.2 0 -0.9 0 -1 -0.1 c -0.9 -0.9 -41.3 -41.2 -41.5 -41.6 c -5.5 2.2 -10.4 3.8 -16.1 5.1 c -24.3 5.9 -50.2 3.9 -73.3 -5.6 c -24.8 -10.2 -45.7 -29 -58.6 -52.5 c -13.7 -25.1 -17.7 -54.6 -11.7 -82.5 l 0.1 -0.2 c 2.8 -11.7 6.9 -22.8 13 -33.3 c 15.5 -26.8 41.5 -46.9 71.4 -55 c -1.5 11.7 -5 23.1 -10.5 33.6 c -2.8 5.5 -6.2 10.7 -10 15.6 c -1.5 2 -3.1 3.9 -4.8 5.7 c -1.7 1.9 -3.7 3.7 -5.3 5.6 c -4.1 5.1 -5.4 12.1 -3.4 18.4 c 2.2 6.7 8 11.9 14.9 13.2 c 3.8 0.7 7.8 0.3 11.4 -1.2 c 3.5 -1.4 6.1 -4 8.6 -6.7 c 5.1 -5.4 9.8 -11.2 14.1 -17.3 c 14.4 -20.8 22.9 -45.6 24.5 -70.8 c 14.5 1.1 29 4.9 42.2 11.1 c 27.2 12.9 48.8 36.2 59.7 64.2 c 10.5 27.1 10.5 57.7 0.2 84.8 c 2.4 2.4 161.6 161.6 162.6 162.6 c 0.3 11.9 0.6 23.8 0.9 35.6 C 841.7 831.9 842 842.9 842.3 854 z" stroke-linecap="round" />
</g>
		<g transform="matrix(1 0 0 1 -0.5499999999998693 -11.099999999999909)"  >
<path style="stroke: none; stroke-width: 1; stroke-dasharray: none; stroke-linecap: butt; stroke-dashoffset: 0; stroke-linejoin: miter; stroke-miterlimit: 4; fill: rgb(255,255,255); fill-rule: nonzero; opacity: 1;"  transform=" translate(-419.9000000000001, -583.7)" d="M 419.8 583.7 c 0 0 0.1 0 0.1 0 c 0.1 0 0.1 0 0.1 0 C 420 583.7 419.9 583.7 419.8 583.7 z" stroke-linecap="round" />
</g>
		<g transform="matrix(1 0 0 1 -6.499999999999915 -31.149999999999864)"  >
<path style="stroke: none; stroke-width: 1; stroke-dasharray: none; stroke-linecap: butt; stroke-dashoffset: 0; stroke-linejoin: miter; stroke-miterlimit: 4; fill: rgb(255,255,255); fill-rule: nonzero; opacity: 1;"  transform=" translate(-413.95000000000005, -563.6500000000001)" d="M 413.8 563.6 c 0.1 0 0.2 0 0.3 0.1 C 414 563.6 413.9 563.6 413.8 563.6 z" stroke-linecap="round" />
</g>
		<g transform="matrix(1 0 0 1 14.270000000000067 -159.77039955618443)"  >
<path style="stroke: none; stroke-width: 1; stroke-dasharray: none; stroke-linecap: butt; stroke-dashoffset: 0; stroke-linejoin: miter; stroke-miterlimit: 4; fill: rgb(255,255,255); fill-rule: nonzero; opacity: 1;"  transform=" translate(-434.72, -435.0296004438156)" d="M 566.1 451.6 c 0.3 26.1 -7.3 51.9 -21.6 73.7 c -1.4 2.1 -2.9 4.2 -4.4 6.2 c -1.3 1.9 -2.8 4 -4.4 5.6 c -1.2 1.2 -2.2 2.6 -3.4 3.9 c -1.2 1.3 -2.4 2.6 -3.6 3.8 c -1.8 1.8 -3.9 3.6 -6.5 3.7 c -4.4 0.7 -8.9 -2.2 -10.2 -6.5 c -2.6 -6.2 3.7 -10.9 7.2 -14.9 c 19.2 -21.6 29.1 -50.5 27.8 -79.2 c -1.2 -27.4 -12.5 -53.8 -31.6 -73.5 c -16.7 -17.2 -38.7 -28.7 -62.3 -32.6 c -23 -3.8 -46.9 -0.4 -67.9 9.8 c -23 11.2 -41.9 30.4 -52.6 53.6 c -9 19.2 -12.2 40.9 -9.6 62 H 304 c 0 -0.4 -0.1 -0.6 -0.1 -0.7 c -0.3 -3.2 -0.5 -6.5 -0.6 -9.7 c -0.2 -6.5 0.1 -13 0.9 -19.5 c 3.1 -26.5 14.4 -51.7 32.1 -71.7 c 16.2 -18.2 37.3 -31.8 60.7 -38.7 c 22.3 -6.6 46.2 -7.2 68.8 -1.8 c 23.3 5.6 44.8 17.6 61.7 34.5 c 19.5 19.4 32.6 44.8 37 71.9 c 1 6.4 1.6 12.9 1.7 19.4 C 566.1 451.2 566.1 451.4 566.1 451.6 z" stroke-linecap="round" />
</g>
		<g transform="matrix(1 0 0 1 -36.61271031148755 -41.75)"  >
<path style="stroke: none; stroke-width: 1; stroke-dasharray: none; stroke-linecap: butt; stroke-dashoffset: 0; stroke-linejoin: miter; stroke-miterlimit: 4; fill: rgb(255,255,255); fill-rule: nonzero; opacity: 1;"  transform=" translate(-383.83728968851244, -553.05)" d="M 435.1 584.5 c -4.7 0 -9.3 -0.2 -14 -0.7 c 0 0 0 0 0 0 c 0 0 0 0 -0.1 0 c -1.3 0 -2.7 -0.4 -4 -0.5 c -1.4 -0.2 -2.8 -0.4 -4.3 -0.6 c -2.8 -0.4 -5.6 -1.1 -8.4 -1.7 c 0 0 0 0 0 0 c 0 0 -0.1 0 -0.1 0 c -2.7 -0.7 -5.5 -1.3 -8.2 -2.2 c -0.1 0 -0.2 -0.1 -0.2 -0.1 c -0.1 0 -0.2 0 -0.2 0 c -0.5 -0.1 -1.1 -0.3 -1.6 -0.5 c -0.5 0 -1.3 -0.5 -1.8 -0.6 c -0.7 -0.2 -1.4 -0.5 -2.1 -0.8 c -1.5 -0.6 -2.9 -1.2 -4.4 -1.7 c -3 -1 -5.9 -2.4 -8.7 -3.8 c -5.7 -2.8 -11.1 -6 -16.3 -9.5 c -5.1 -3.5 -10 -7.3 -14.5 -11.4 c -2.3 -2.1 -4.5 -4.3 -6.6 -6.5 c -2 -2.1 -4.1 -4.2 -5.8 -6.6 c -1.5 -2 -2.5 -4.3 -2.3 -6.8 c 0.2 -2.2 1.1 -4.4 2.6 -6 c 1.8 -1.9 4.2 -2.9 6.8 -2.9 c 2.8 0 5.2 1.2 7.1 3.2 c 1.9 2 3.6 4.1 5.5 6.1 c 2 2.1 4.1 4.1 6.3 6.1 c 4.3 3.9 9 7.5 13.9 10.6 c 18.5 11.9 40.5 18.3 62.5 18.1 C 435.2 571.9 435 578.2 435.1 584.5 z" stroke-linecap="round" />
</g>
</g>
</g>
</svg>